<svg width="100" height="100" viewBox="0 0 100 100" fill="none" xmlns="http://www.w3.org/2000/svg">
  <path d="M1.5 0C1.5 0 1.5 1.5 1.5 1.5V98.5C1.5 98.5 1.5 100 1.5 100M1.5 100C1.5 100 0 100 0 100H98.5C98.5 100 100 100 100 100M100 100C100 100 100 98.5 100 98.5V1.5C100 1.5 100 0 100 0M100 0C100 0 98.5 0 98.5 0H1.5C1.5 0 0 0 0 0" stroke="rgb(59 130 246 / 0.1)" stroke-width="1"/>
  <path d="M20 1V99M40 1V99M60 1V99M80 1V99M1 20H99M1 40H99M1 60H99M1 80H99" stroke="rgb(59 130 246 / 0.05)" stroke-width="1"/>
</svg> 